<?xml version="1.0" standalone="no"?>
<!DOCTYPE svg PUBLIC "-//W3C//DTD SVG 20010904//EN"
 "http://www.w3.org/TR/2001/REC-SVG-20010904/DTD/svg10.dtd">
<svg version="1.0" xmlns="http://www.w3.org/2000/svg"
 width="96.000000pt" height="96.000000pt" viewBox="0 0 96.000000 96.000000"
 preserveAspectRatio="xMidYMid meet">

<g transform="translate(0.000000,96.000000) scale(0.100000,-0.100000)"
fill="#000000" stroke="none">
<path d="M386 870 c-63 -16 -153 -70 -197 -117 -22 -24 -55 -74 -72 -111 -29
-61 -32 -76 -32 -163 0 -90 2 -99 37 -171 45 -91 103 -147 196 -191 61 -29 76
-32 162 -32 86 0 101 3 162 32 93 44 151 100 196 191 35 72 37 81 37 172 0 91
-2 100 -37 172 -68 136 -188 217 -336 224 -42 2 -94 -1 -116 -6z m235 -82 c69
-32 135 -98 168 -168 37 -79 37 -201 0 -280 -33 -70 -99 -136 -169 -169 -79
-37 -201 -37 -280 0 -70 33 -136 99 -169 169 -37 79 -37 201 0 280 28 59 94
132 143 157 96 50 213 54 307 11z"/>
<path d="M424 706 c-90 -39 -78 -189 17 -218 106 -31 191 67 143 167 -27 58
-94 79 -160 51z m98 -63 c22 -20 23 -51 2 -81 -30 -43 -104 -17 -104 36 0 54
62 81 102 45z"/>
<path d="M300 420 c-32 -32 -27 -91 11 -135 75 -85 263 -85 338 0 38 44 43
103 11 135 -18 18 -33 20 -180 20 -147 0 -162 -2 -180 -20z m320 -56 c0 -29
-20 -52 -60 -68 -96 -38 -220 0 -220 68 0 14 20 16 140 16 120 0 140 -2 140
-16z"/>
</g>
</svg>
