<?xml version="1.0" standalone="no"?>
<!DOCTYPE svg PUBLIC "-//W3C//DTD SVG 20010904//EN"
 "http://www.w3.org/TR/2001/REC-SVG-20010904/DTD/svg10.dtd">
<svg version="1.0" xmlns="http://www.w3.org/2000/svg"
 width="96.000000pt" height="96.000000pt" viewBox="0 0 96.000000 96.000000"
 preserveAspectRatio="xMidYMid meet">

<g transform="translate(0.000000,96.000000) scale(0.100000,-0.100000)"
fill="#000000" stroke="none">
<path d="M199 792 c-67 -35 -110 -98 -117 -172 -4 -42 1 -61 28 -116 27 -55
61 -95 193 -225 89 -88 169 -159 177 -159 9 0 88 71 176 158 176 173 224 244
224 326 -1 110 -106 216 -215 216 -47 0 -107 -26 -152 -64 l-33 -28 -32 28
c-82 69 -164 81 -249 36z m172 -54 c21 -12 51 -39 65 -60 15 -21 34 -38 44
-38 10 0 29 17 44 38 14 21 45 49 67 61 93 52 211 -8 226 -116 9 -68 -31 -130
-186 -286 -76 -75 -143 -137 -150 -137 -8 0 -75 62 -151 137 -174 174 -210
238 -179 320 34 90 137 128 220 81z"/>
</g>
</svg>
