<?xml version="1.0" standalone="no"?>
<!DOCTYPE svg PUBLIC "-//W3C//DTD SVG 20010904//EN"
 "http://www.w3.org/TR/2001/REC-SVG-20010904/DTD/svg10.dtd">
<svg version="1.0" xmlns="http://www.w3.org/2000/svg"
 width="96.000000pt" height="96.000000pt" viewBox="0 0 96.000000 96.000000"
 preserveAspectRatio="xMidYMid meet">

<g transform="translate(0.000000,96.000000) scale(0.100000,-0.100000)"
fill="#000000" stroke="none">
<path d="M384 901 c-46 -21 -78 -57 -94 -107 -10 -30 -16 -34 -47 -34 -25 0
-43 -8 -64 -29 -16 -16 -29 -36 -29 -43 0 -8 -11 -121 -25 -252 -14 -131 -25
-247 -25 -258 0 -11 13 -33 29 -49 l29 -29 322 0 322 0 29 29 c16 16 29 38 29
48 0 11 -11 126 -25 257 -14 131 -25 245 -25 253 0 8 -13 28 -29 44 -22 21
-39 29 -65 29 -33 0 -36 -2 -36 -30 0 -27 3 -30 30 -30 17 0 33 -6 35 -12 9
-25 56 -501 51 -514 -8 -21 -624 -21 -632 0 -5 13 42 489 51 514 2 6 18 12 34
12 29 0 30 -2 33 -47 3 -44 5 -48 28 -48 24 0 25 2 30 92 5 88 7 94 38 125 28
28 39 33 82 33 40 0 54 -5 78 -29 17 -15 32 -37 35 -47 5 -18 -2 -19 -94 -19
l-99 0 0 -30 0 -30 99 0 100 0 3 -47 c3 -44 5 -48 28 -48 24 0 25 3 28 75 4
84 -8 134 -40 175 -27 34 -92 65 -138 65 -19 0 -53 -9 -76 -19z"/>
</g>
</svg>
